<mxfile host="app.diagrams.net" modified="2024-06-22T00:27:50.602Z" agent="Mozilla/5.0 (X11; Linux x86_64) AppleWebKit/537.36 (KHTML, like Gecko) Chrome/124.0.0.0 Safari/537.36" etag="MzX3UcFlnMCbbK3PQSig" version="24.6.1" type="google">
  <diagram name="Page-1" id="y1OaE0mLA7CG7sbhseW1">
    <mxGraphModel grid="1" page="1" gridSize="10" guides="1" tooltips="1" connect="1" arrows="1" fold="1" pageScale="1" pageWidth="827" pageHeight="1169" math="0" shadow="0">
      <root>
        <mxCell id="0" />
        <mxCell id="1" parent="0" />
        <mxCell id="cJuLWiHpxSl9svkNIqUR-2" value="" style="rounded=1;whiteSpace=wrap;html=1;fillColor=#000000;" vertex="1" parent="1">
          <mxGeometry x="38.25" y="210" width="1121.75" height="340" as="geometry" />
        </mxCell>
        <mxCell id="cJuLWiHpxSl9svkNIqUR-19" value="" style="edgeStyle=orthogonalEdgeStyle;rounded=0;orthogonalLoop=1;jettySize=auto;html=1;" edge="1" parent="1" source="cJuLWiHpxSl9svkNIqUR-1" target="cJuLWiHpxSl9svkNIqUR-18">
          <mxGeometry relative="1" as="geometry" />
        </mxCell>
        <mxCell id="cJuLWiHpxSl9svkNIqUR-1" value="" style="outlineConnect=0;dashed=0;verticalLabelPosition=bottom;verticalAlign=top;align=center;html=1;shape=mxgraph.aws3.s3;fillColor=#E05243;gradientColor=none;" vertex="1" parent="1">
          <mxGeometry x="89.25" y="240" width="76.5" height="93" as="geometry" />
        </mxCell>
        <mxCell id="cJuLWiHpxSl9svkNIqUR-21" value="" style="edgeStyle=orthogonalEdgeStyle;rounded=0;orthogonalLoop=1;jettySize=auto;html=1;" edge="1" parent="1" source="cJuLWiHpxSl9svkNIqUR-3" target="cJuLWiHpxSl9svkNIqUR-20">
          <mxGeometry relative="1" as="geometry" />
        </mxCell>
        <mxCell id="cJuLWiHpxSl9svkNIqUR-3" value="" style="editableCssRules=.*;html=1;shape=image;verticalLabelPosition=bottom;labelBackgroundColor=#ffffff;verticalAlign=top;aspect=fixed;imageAspect=0;image=data:image/svg+xml,PHN2ZyB4bWxucz0iaHR0cDovL3d3dy53My5vcmcvMjAwMC9zdmciIHhtbG5zOnY9Imh0dHBzOi8vdmVjdGEuaW8vbmFubyIgd2lkdGg9IjE0LjY1OTk5OTg0NzQxMjExIiBoZWlnaHQ9IjIwIiB2aWV3Qm94PSIwIDAgMTQuNjU5OTk5ODQ3NDEyMTEgMjAiPiYjeGE7CTxzdHlsZSB0eXBlPSJ0ZXh0L2NzcyI+JiN4YTsJLnN0MHtmaWxsOiM0Mjg1ZjQ7fSYjeGE7CS5zdDF7ZmlsbDojNjY5ZGY2O30mI3hhOwkuc3Qye2ZpbGw6I2FlY2JmYTt9JiN4YTsJPC9zdHlsZT4mI3hhOwk8c3R5bGU+JiN4YTsJCS5Ee2ZpbGwtcnVsZTpldmVub2RkfSYjeGE7CTwvc3R5bGU+JiN4YTsJPHBhdGggZD0iTTcuMzMgMTUuMzV2LTMuMDFMMCA4LjQ0djMuMDF6bTAgNC42NXYtMy4wMUwwIDEzLjA5djMuMDF6IiBjbGFzcz0ic3QyIEQiLz4mI3hhOwk8cGF0aCBkPSJNMTQuNjYgOC40NGwtNy4zMyAzLjl2My4wMWw3LjMzLTMuOXptMCA0LjY1bC03LjMzIDMuOVYyMGw3LjMzLTMuOXoiIGNsYXNzPSJzdDEgRCIvPiYjeGE7CTxwYXRoIGQ9Ik03LjMzIDB2My4wMWw3LjMzIDMuOVYzLjl6IiBjbGFzcz0ic3QwIEQiLz4mI3hhOwk8cGF0aCBkPSJNMCA2LjkxbDcuMzMtMy45VjBMMCAzLjl6IiBjbGFzcz0iRCBzdDEiLz4mI3hhOwk8cGF0aCBkPSJNNy4zMyAxMC43OVY3Ljc3TDAgMy44N3YzLjAyeiIgY2xhc3M9IkQgc3QyIi8+JiN4YTsJPHBhdGggZD0iTTE0LjY2IDMuODdsLTcuMzMgMy45djMuMDJsNy4zMy0zLjl6IiBjbGFzcz0iRCBzdDEiLz4mI3hhOzwvc3ZnPg==;" vertex="1" parent="1">
          <mxGeometry x="90" y="380" width="75" height="100" as="geometry" />
        </mxCell>
        <mxCell id="cJuLWiHpxSl9svkNIqUR-23" value="" style="edgeStyle=orthogonalEdgeStyle;rounded=0;orthogonalLoop=1;jettySize=auto;html=1;" edge="1" parent="1" source="cJuLWiHpxSl9svkNIqUR-4" target="cJuLWiHpxSl9svkNIqUR-22">
          <mxGeometry relative="1" as="geometry" />
        </mxCell>
        <mxCell id="cJuLWiHpxSl9svkNIqUR-4" value="" style="editableCssRules=.*;html=1;shape=image;verticalLabelPosition=bottom;labelBackgroundColor=#ffffff;verticalAlign=top;aspect=fixed;imageAspect=0;image=data:image/svg+xml,PHN2ZyB4bWxucz0iaHR0cDovL3d3dy53My5vcmcvMjAwMC9zdmciIHhtbG5zOnY9Imh0dHBzOi8vdmVjdGEuaW8vbmFubyIgd2lkdGg9IjIwLjAwMTA0NTIyNzA1MDc4IiBoZWlnaHQ9IjIwLjAwMTA0NTIyNzA1MDc4IiBmaWxsLXJ1bGU9ImV2ZW5vZGQiIHZpZXdCb3g9IjAgMCAyMC4wMDEwNDUyMjcwNTA3OCAyMC4wMDEwNDUyMjcwNTA3OCI+JiN4YTsJPHN0eWxlIHR5cGU9InRleHQvY3NzIj4mI3hhOwkuc3Qwe2ZpbGw6I2FlY2JmYTt9JiN4YTsJLnN0MXtmaWxsOiM2NjlkZjY7fSYjeGE7CS5zdDJ7ZmlsbDojNDI4NWY0O30mI3hhOwk8L3N0eWxlPiYjeGE7CTxwYXRoIGNsYXNzPSJzdDAiIGQ9Ik00LjczIDguODN2Mi42M2E0LjkxIDQuOTEgMCAwIDAgMS43MSAxLjc0VjguODN6Ii8+JiN4YTsJPHBhdGggY2xhc3M9InN0MSIgZD0iTTcuODkgNi40MXY3LjUzQTcuNjIgNy42MiAwIDAgMCA5IDE0YTggOCAwIDAgMCAxIDBWNi40MXoiLz4mI3hhOwk8cGF0aCBjbGFzcz0ic3QwIiBkPSJNMTEuNjQgOS44NnYzLjI5YTUgNSAwIDAgMCAxLjctMS44MlY5Ljg2eiIvPiYjeGE7CTxwYXRoIGNsYXNzPSJzdDIiIGQ9Ik0xNS43NCAxNC4zMmwtMS40MiAxLjQyYS40Mi40MiAwIDAgMCAwIC42bDMuNTQgMy41NGEuNDIuNDIgMCAwIDAgLjU5IDBsMS40My0xLjQzYS40Mi40MiAwIDAgMCAwLS41OWwtMy41NC0zLjU0YS40Mi40MiAwIDAgMC0uNiAwIi8+JiN4YTsJPHBhdGggY2xhc3M9InN0MSIgZD0iTTkgMGE5IDkgMCAxIDAgMCAxOEE5IDkgMCAxIDAgOSAwbTAgMTUuNjlhNi42OCA2LjY4IDAgMCAxIC4wMDctMTMuMzYgNi42OCA2LjY4IDAgMCAxIDQuNzI3IDExLjQwM0E2LjY4IDYuNjggMCAwIDEgOSAxNS42OSIvPiYjeGE7PC9zdmc+;" vertex="1" parent="1">
          <mxGeometry x="290" y="340" width="80" height="80" as="geometry" />
        </mxCell>
        <mxCell id="cJuLWiHpxSl9svkNIqUR-5" value="" style="editableCssRules=.*;html=1;shape=image;verticalLabelPosition=bottom;labelBackgroundColor=#ffffff;verticalAlign=top;aspect=fixed;imageAspect=0;image=data:image/svg+xml,PHN2ZyB4bWxucz0iaHR0cDovL3d3dy53My5vcmcvMjAwMC9zdmciIHhtbG5zOnY9Imh0dHBzOi8vdmVjdGEuaW8vbmFubyIgd2lkdGg9IjE4LjI3OTk5ODc3OTI5Njg3NSIgaGVpZ2h0PSIyMCIgdmlld0JveD0iMS4yNDYyOTA4MDM4OTEyNzAxZS04IDAgMTguMjc5OTk4Nzc5Mjk2ODc1IDIwIj4mI3hhOwk8c3R5bGUgdHlwZT0idGV4dC9jc3MiPiYjeGE7CS5zdDB7ZmlsbDojNjY5ZGY2O2ZpbGwtcnVsZTpldmVub2RkfSYjeGE7CS5zdDF7ZmlsbDojNDI4NWY0O30mI3hhOwkuc3Qye2ZpbGwtcnVsZTpldmVub2RkfSYjeGE7CTwvc3R5bGU+JiN4YTsJPHBhdGggY2xhc3M9InN0MCIgZD0iTTcuNjMgOWEuOTEuOTEgMCAxIDEtLjY0My4yNjdBLjkxLjkxIDAgMCAxIDcuNjMgOXptMC0uOGExLjcxIDEuNzEgMCAxIDAgMS43IDEuNzEgMS43IDEuNyAwIDAgMC0xLjctMS43MXpNMS43MiA5YS45MS45MSAwIDEgMS0uNjQzLjI2N0EuOTEuOTEgMCAwIDEgMS43MiA5em0wLS44YTEuNzEgMS43MSAwIDEgMCAxLjcgMS43MSAxLjcgMS43IDAgMCAwLTEuNy0xLjcxem0zLjA0IDYuMTFhLjkxLjkxIDAgMSAxIDAgMS44Mi45MS45MSAwIDEgMSAwLTEuODJ6bTAtLjc5YTEuNzEgMS43MSAwIDEgMCAxLjIuNSAxLjcgMS43IDAgMCAwLTEuMi0uNXptMC05LjczYS45MS45MSAwIDAgMS0uMDQgMS44MTkuOTEuOTEgMCAwIDEtLjktLjkwOS45Mi45MiAwIDAgMSAuOTQtLjkxem0wLS44YTEuNzEgMS43MSAwIDEgMCAxLjIuNUExLjcgMS43IDAgMCAwIDQuNzYgM3oiLz4mI3hhOwk8ZyBjbGFzcz0ic3QxIj4mI3hhOwkJPHBhdGggZD0iTTcuODEgMGgxLjY4djIwSDcuODF6Ii8+JiN4YTsJCTxwYXRoIGNsYXNzPSJzdDIiIGQ9Ik0xMy40IDIuODdIOC44OWEuMzcuMzcgMCAwIDAtLjMuNHYyLjgyYS4zNi4zNiAwIDAgMCAuMy4zOWg0LjUxYS4zNi4zNiAwIDAgMCAuMzEtLjM5VjMuMjhhLjM3LjM3IDAgMCAwLS4zMS0uNDF6bTQuMzIgNS4yOUg5LjRjLS4zMSAwLS41Ni4xOC0uNTYuMzl2Mi44MmMwIC4yMi4yNS40LjU2LjRoOC4zMmMuMzEgMCAuNTYtLjE5LjU2LS40VjguNTVjMC0uMjItLjI1LS4zOS0uNTYtLjM5em0tNS45MSA1LjI4SDguMjhjLS4xMyAwLS4yMy4xOC0uMjMuMzl2Mi44MmMwIC4yMi4xLjM5LjIzLjM5aDMuNTNjLjEzIDAgLjI0LS4xOC4yNC0uMzl2LTIuODJjLS4wMS0uMjItLjExLS4zOS0uMjQtLjM5eiIvPiYjeGE7CTwvZz4mI3hhOzwvc3ZnPg==;" vertex="1" parent="1">
          <mxGeometry x="502.62" y="345" width="63" height="70" as="geometry" />
        </mxCell>
        <mxCell id="cJuLWiHpxSl9svkNIqUR-6" value="" style="editableCssRules=.*;html=1;shape=image;verticalLabelPosition=bottom;labelBackgroundColor=#ffffff;verticalAlign=top;aspect=fixed;imageAspect=0;image=data:image/svg+xml,PHN2ZyB4bWxucz0iaHR0cDovL3d3dy53My5vcmcvMjAwMC9zdmciIHhtbG5zOnY9Imh0dHBzOi8vdmVjdGEuaW8vbmFubyIgd2lkdGg9IjIwLjAwMTA0NTIyNzA1MDc4IiBoZWlnaHQ9IjIwLjAwMTA0NTIyNzA1MDc4IiBmaWxsLXJ1bGU9ImV2ZW5vZGQiIHZpZXdCb3g9IjAgMCAyMC4wMDEwNDUyMjcwNTA3OCAyMC4wMDEwNDUyMjcwNTA3OCI+JiN4YTsJPHN0eWxlIHR5cGU9InRleHQvY3NzIj4mI3hhOwkuc3Qwe2ZpbGw6I2FlY2JmYTt9JiN4YTsJLnN0MXtmaWxsOiM2NjlkZjY7fSYjeGE7CS5zdDJ7ZmlsbDojNDI4NWY0O30mI3hhOwk8L3N0eWxlPiYjeGE7CTxwYXRoIGNsYXNzPSJzdDAiIGQ9Ik00LjczIDguODN2Mi42M2E0LjkxIDQuOTEgMCAwIDAgMS43MSAxLjc0VjguODN6Ii8+JiN4YTsJPHBhdGggY2xhc3M9InN0MSIgZD0iTTcuODkgNi40MXY3LjUzQTcuNjIgNy42MiAwIDAgMCA5IDE0YTggOCAwIDAgMCAxIDBWNi40MXoiLz4mI3hhOwk8cGF0aCBjbGFzcz0ic3QwIiBkPSJNMTEuNjQgOS44NnYzLjI5YTUgNSAwIDAgMCAxLjctMS44MlY5Ljg2eiIvPiYjeGE7CTxwYXRoIGNsYXNzPSJzdDIiIGQ9Ik0xNS43NCAxNC4zMmwtMS40MiAxLjQyYS40Mi40MiAwIDAgMCAwIC42bDMuNTQgMy41NGEuNDIuNDIgMCAwIDAgLjU5IDBsMS40My0xLjQzYS40Mi40MiAwIDAgMCAwLS41OWwtMy41NC0zLjU0YS40Mi40MiAwIDAgMC0uNiAwIi8+JiN4YTsJPHBhdGggY2xhc3M9InN0MSIgZD0iTTkgMGE5IDkgMCAxIDAgMCAxOEE5IDkgMCAxIDAgOSAwbTAgMTUuNjlhNi42OCA2LjY4IDAgMCAxIC4wMDctMTMuMzYgNi42OCA2LjY4IDAgMCAxIDQuNzI3IDExLjQwM0E2LjY4IDYuNjggMCAwIDEgOSAxNS42OSIvPiYjeGE7PC9zdmc+;" vertex="1" parent="1">
          <mxGeometry x="690" y="340" width="80" height="80" as="geometry" />
        </mxCell>
        <UserObject label="&lt;b style=&quot;font-weight:normal;&quot; id=&quot;docs-internal-guid-14ff7b08-7fff-ae21-c5d1-d9c2feba8c4f&quot;&gt;&lt;img width=&quot;51px;&quot; height=&quot;51px;&quot; src=&quot;https://lh7-us.googleusercontent.com/slidesz/AGV_vUdXtPRianAtsSaMzzcZrZnpraVQc0N-iucKHmZPz62ePJ5BOohVFDlUFLd3SbApkNQ8_3nJEUyFp_MVvpRQfk_lufTk-ikV94kERgC-RW-nrv9FEDfd6tjmEGAqyXKtCGmMoDAtjXwDgutU_4JJMnUT7mGqFtwB=s2048?key=HlGHz7GLxUE4mLiwRD8bgA&quot;&gt;&lt;/b&gt;" link="&lt;b style=&quot;font-weight:normal;&quot; id=&quot;docs-internal-guid-14ff7b08-7fff-ae21-c5d1-d9c2feba8c4f&quot;&gt;&lt;img width=&quot;51px;&quot; height=&quot;51px;&quot; src=&quot;https://lh7-us.googleusercontent.com/slidesz/AGV_vUdXtPRianAtsSaMzzcZrZnpraVQc0N-iucKHmZPz62ePJ5BOohVFDlUFLd3SbApkNQ8_3nJEUyFp_MVvpRQfk_lufTk-ikV94kERgC-RW-nrv9FEDfd6tjmEGAqyXKtCGmMoDAtjXwDgutU_4JJMnUT7mGqFtwB=s2048?key=HlGHz7GLxUE4mLiwRD8bgA&quot;&gt;&lt;/b&gt;" id="cJuLWiHpxSl9svkNIqUR-8">
          <mxCell style="text;whiteSpace=wrap;html=1;" vertex="1" parent="1">
            <mxGeometry x="910" y="260" width="120" height="100" as="geometry" />
          </mxCell>
        </UserObject>
        <UserObject label="&lt;b style=&quot;font-weight:normal;&quot; id=&quot;docs-internal-guid-5ee1da91-7fff-65e5-4836-dd54249c5afa&quot;&gt;&lt;img width=&quot;56px;&quot; height=&quot;56px;&quot; src=&quot;https://lh7-us.googleusercontent.com/slidesz/AGV_vUf7BHu1qNCt4KDWnxPu3ehoSAFi8c0vj7CjyOAuGmSqkLskFqDKZpPK8BidNLFdk2MNapK39A2mX6Fhh6ANRAE_AWDNz1N5HK8b8qC2P7AAnc4r85_Tpwf6QT1RamadL9n7VUb_ziXfhAZHxd1dpW7GztK3K6M=s2048?key=HlGHz7GLxUE4mLiwRD8bgA&quot;&gt;&lt;/b&gt;" link="&lt;b style=&quot;font-weight:normal;&quot; id=&quot;docs-internal-guid-5ee1da91-7fff-65e5-4836-dd54249c5afa&quot;&gt;&lt;img width=&quot;56px;&quot; height=&quot;56px;&quot; src=&quot;https://lh7-us.googleusercontent.com/slidesz/AGV_vUf7BHu1qNCt4KDWnxPu3ehoSAFi8c0vj7CjyOAuGmSqkLskFqDKZpPK8BidNLFdk2MNapK39A2mX6Fhh6ANRAE_AWDNz1N5HK8b8qC2P7AAnc4r85_Tpwf6QT1RamadL9n7VUb_ziXfhAZHxd1dpW7GztK3K6M=s2048?key=HlGHz7GLxUE4mLiwRD8bgA&quot;&gt;&lt;/b&gt;" id="cJuLWiHpxSl9svkNIqUR-9">
          <mxCell style="text;whiteSpace=wrap;html=1;" vertex="1" parent="1">
            <mxGeometry x="910" y="390" width="90" height="80" as="geometry" />
          </mxCell>
        </UserObject>
        <mxCell id="cJuLWiHpxSl9svkNIqUR-10" value="&lt;font color=&quot;#ffffff&quot;&gt;S3&lt;/font&gt;" style="text;html=1;align=center;verticalAlign=middle;whiteSpace=wrap;rounded=0;" vertex="1" parent="1">
          <mxGeometry x="97.5" y="340" width="60" height="30" as="geometry" />
        </mxCell>
        <mxCell id="cJuLWiHpxSl9svkNIqUR-11" value="&lt;font color=&quot;#ffffff&quot;&gt;Cloud SQL&lt;/font&gt;" style="text;html=1;align=center;verticalAlign=middle;whiteSpace=wrap;rounded=0;" vertex="1" parent="1">
          <mxGeometry x="105" y="490" width="60" height="30" as="geometry" />
        </mxCell>
        <mxCell id="cJuLWiHpxSl9svkNIqUR-12" value="&lt;font color=&quot;#ffffff&quot;&gt;BigQuery&lt;/font&gt;" style="text;html=1;align=center;verticalAlign=middle;whiteSpace=wrap;rounded=0;" vertex="1" parent="1">
          <mxGeometry x="300" y="460" width="60" height="30" as="geometry" />
        </mxCell>
        <mxCell id="cJuLWiHpxSl9svkNIqUR-13" value="&lt;font color=&quot;#ffffff&quot;&gt;DataPrep&lt;/font&gt;" style="text;html=1;align=center;verticalAlign=middle;whiteSpace=wrap;rounded=0;" vertex="1" parent="1">
          <mxGeometry x="504.12" y="450" width="60" height="30" as="geometry" />
        </mxCell>
        <mxCell id="cJuLWiHpxSl9svkNIqUR-14" value="&lt;font color=&quot;#ffffff&quot;&gt;BigQuery&lt;/font&gt;" style="text;html=1;align=center;verticalAlign=middle;whiteSpace=wrap;rounded=0;" vertex="1" parent="1">
          <mxGeometry x="700" y="440" width="60" height="30" as="geometry" />
        </mxCell>
        <mxCell id="cJuLWiHpxSl9svkNIqUR-15" value="&lt;font color=&quot;#ffffff&quot;&gt;Looker para visualizar la informacion procesada&lt;/font&gt;" style="text;html=1;align=center;verticalAlign=middle;whiteSpace=wrap;rounded=0;" vertex="1" parent="1">
          <mxGeometry x="890" y="330" width="140" height="30" as="geometry" />
        </mxCell>
        <mxCell id="cJuLWiHpxSl9svkNIqUR-16" value="&lt;font color=&quot;#ffffff&quot;&gt;Vertex AI para realizar el modelo de ML&lt;/font&gt;" style="text;html=1;align=center;verticalAlign=middle;whiteSpace=wrap;rounded=0;" vertex="1" parent="1">
          <mxGeometry x="880" y="460" width="150" height="30" as="geometry" />
        </mxCell>
        <mxCell id="cJuLWiHpxSl9svkNIqUR-18" value="" style="shape=singleArrow;whiteSpace=wrap;html=1;arrowWidth=0.4;arrowSize=0.4;verticalAlign=top;fillColor=#E05243;dashed=0;gradientColor=none;rotation=30;" vertex="1" parent="1">
          <mxGeometry x="190" y="310" width="80" height="60" as="geometry" />
        </mxCell>
        <mxCell id="cJuLWiHpxSl9svkNIqUR-20" value="" style="shape=singleArrow;whiteSpace=wrap;html=1;arrowWidth=0.4;arrowSize=0.4;verticalAlign=top;labelBackgroundColor=#ffffff;rotation=-30;fillColor=#3399FF;" vertex="1" parent="1">
          <mxGeometry x="190" y="380" width="80" height="60" as="geometry" />
        </mxCell>
        <mxCell id="cJuLWiHpxSl9svkNIqUR-22" value="" style="shape=singleArrow;whiteSpace=wrap;html=1;arrowWidth=0.4;arrowSize=0.4;verticalAlign=top;labelBackgroundColor=#ffffff;fillColor=#3399FF;" vertex="1" parent="1">
          <mxGeometry x="390" y="345" width="86" height="60" as="geometry" />
        </mxCell>
        <mxCell id="cJuLWiHpxSl9svkNIqUR-24" value="" style="shape=singleArrow;whiteSpace=wrap;html=1;arrowWidth=0.4;arrowSize=0.4;verticalAlign=top;labelBackgroundColor=#ffffff;fillColor=#3399FF;" vertex="1" parent="1">
          <mxGeometry x="590" y="350" width="86" height="60" as="geometry" />
        </mxCell>
        <mxCell id="cJuLWiHpxSl9svkNIqUR-25" value="" style="shape=singleArrow;whiteSpace=wrap;html=1;arrowWidth=0.4;arrowSize=0.4;verticalAlign=top;labelBackgroundColor=#ffffff;fillColor=#3399FF;rotation=-15;" vertex="1" parent="1">
          <mxGeometry x="790" y="330" width="86" height="60" as="geometry" />
        </mxCell>
        <mxCell id="cJuLWiHpxSl9svkNIqUR-26" value="" style="shape=singleArrow;whiteSpace=wrap;html=1;arrowWidth=0.4;arrowSize=0.4;verticalAlign=top;labelBackgroundColor=#ffffff;fillColor=#3399FF;rotation=15;" vertex="1" parent="1">
          <mxGeometry x="790" y="400" width="86" height="60" as="geometry" />
        </mxCell>
      </root>
    </mxGraphModel>
  </diagram>
</mxfile>
